<svg xmlns="http://www.w3.org/2000/svg" xmlns:xlink="http://www.w3.org/1999/xlink" width="500" zoomAndPan="magnify" viewBox="0 0 375 374.999991" height="500" preserveAspectRatio="xMidYMid meet" version="1.0"><defs><g/><clipPath id="ff7cfbb758"><path d="M 57.269531 162.433594 L 105 162.433594 L 105 212.683594 L 57.269531 212.683594 Z M 57.269531 162.433594 " clip-rule="nonzero"/></clipPath><clipPath id="8176ae0513"><path d="M 84.703125 185.789062 L 63.386719 185.789062 C 62.558594 185.789062 61.960938 185 62.183594 184.207031 L 68.035156 163.351562 C 68.1875 162.8125 68.679688 162.441406 69.238281 162.441406 L 90.554688 162.441406 C 91.378906 162.441406 91.976562 163.230469 91.753906 164.023438 L 85.902344 184.878906 C 85.753906 185.417969 85.261719 185.789062 84.703125 185.789062 Z M 70.855469 201.53125 L 73.871094 190.792969 C 74.09375 190 73.496094 189.210938 72.667969 189.210938 L 61.710938 189.210938 C 61.152344 189.210938 60.660156 189.582031 60.511719 190.121094 L 57.496094 200.859375 C 57.273438 201.652344 57.871094 202.441406 58.699219 202.441406 L 69.65625 202.441406 C 70.214844 202.441406 70.707031 202.070312 70.855469 201.53125 Z M 76.402344 190.121094 L 70.550781 210.972656 C 70.328125 211.769531 70.925781 212.558594 71.75 212.558594 L 93.066406 212.558594 C 93.625 212.558594 94.117188 212.1875 94.269531 211.648438 L 100.121094 190.792969 C 100.34375 190 99.746094 189.210938 98.917969 189.210938 L 77.601562 189.210938 C 77.042969 189.210938 76.554688 189.582031 76.402344 190.121094 Z M 91.449219 173.46875 L 88.433594 184.207031 C 88.210938 185 88.808594 185.789062 89.636719 185.789062 L 100.59375 185.789062 C 101.152344 185.789062 101.644531 185.417969 101.792969 184.878906 L 104.808594 174.140625 C 105.03125 173.347656 104.433594 172.554688 103.605469 172.554688 L 92.648438 172.554688 C 92.089844 172.554688 91.597656 172.929688 91.449219 173.46875 Z M 91.449219 173.46875 " clip-rule="nonzero"/></clipPath><linearGradient x1="114.296423" gradientTransform="matrix(0.100239, 0, 0, 0.100239, 57.450023, 162.439816)" y1="-47.634015" x2="358.621819" gradientUnits="userSpaceOnUse" y2="547.633944" id="31bc9e459a"><stop stop-opacity="1" stop-color="rgb(72.499084%, 57.598877%, 83.898926%)" offset="0"/><stop stop-opacity="1" stop-color="rgb(72.499084%, 57.598877%, 83.898926%)" offset="0.0625"/><stop stop-opacity="1" stop-color="rgb(72.463989%, 57.61261%, 83.901978%)" offset="0.09375"/><stop stop-opacity="1" stop-color="rgb(72.244263%, 57.707214%, 83.927917%)" offset="0.109375"/><stop stop-opacity="1" stop-color="rgb(71.873474%, 57.865906%, 83.970642%)" offset="0.125"/><stop stop-opacity="1" stop-color="rgb(71.502686%, 58.023071%, 84.011841%)" offset="0.140625"/><stop stop-opacity="1" stop-color="rgb(71.131897%, 58.181763%, 84.054565%)" offset="0.15625"/><stop stop-opacity="1" stop-color="rgb(70.759583%, 58.340454%, 84.095764%)" offset="0.171875"/><stop stop-opacity="1" stop-color="rgb(70.388794%, 58.49762%, 84.138489%)" offset="0.1875"/><stop stop-opacity="1" stop-color="rgb(70.018005%, 58.656311%, 84.181213%)" offset="0.203125"/><stop stop-opacity="1" stop-color="rgb(69.647217%, 58.813477%, 84.222412%)" offset="0.21875"/><stop stop-opacity="1" stop-color="rgb(69.276428%, 58.972168%, 84.265137%)" offset="0.234375"/><stop stop-opacity="1" stop-color="rgb(68.90564%, 59.130859%, 84.307861%)" offset="0.25"/><stop stop-opacity="1" stop-color="rgb(68.534851%, 59.288025%, 84.34906%)" offset="0.265625"/><stop stop-opacity="1" stop-color="rgb(68.162537%, 59.446716%, 84.391785%)" offset="0.281145"/><stop stop-opacity="1" stop-color="rgb(67.977905%, 59.526062%, 84.413147%)" offset="0.28125"/><stop stop-opacity="1" stop-color="rgb(67.791748%, 59.603882%, 84.434509%)" offset="0.296875"/><stop stop-opacity="1" stop-color="rgb(67.420959%, 59.762573%, 84.475708%)" offset="0.3125"/><stop stop-opacity="1" stop-color="rgb(67.050171%, 59.921265%, 84.518433%)" offset="0.328125"/><stop stop-opacity="1" stop-color="rgb(66.679382%, 60.07843%, 84.559631%)" offset="0.34375"/><stop stop-opacity="1" stop-color="rgb(66.308594%, 60.237122%, 84.602356%)" offset="0.359375"/><stop stop-opacity="1" stop-color="rgb(65.936279%, 60.395813%, 84.645081%)" offset="0.375"/><stop stop-opacity="1" stop-color="rgb(65.565491%, 60.552979%, 84.686279%)" offset="0.390625"/><stop stop-opacity="1" stop-color="rgb(65.194702%, 60.71167%, 84.729004%)" offset="0.40625"/><stop stop-opacity="1" stop-color="rgb(64.823914%, 60.868835%, 84.771729%)" offset="0.421875"/><stop stop-opacity="1" stop-color="rgb(64.453125%, 61.027527%, 84.812927%)" offset="0.4375"/><stop stop-opacity="1" stop-color="rgb(64.082336%, 61.186218%, 84.855652%)" offset="0.453125"/><stop stop-opacity="1" stop-color="rgb(63.711548%, 61.343384%, 84.896851%)" offset="0.46875"/><stop stop-opacity="1" stop-color="rgb(63.339233%, 61.502075%, 84.939575%)" offset="0.484375"/><stop stop-opacity="1" stop-color="rgb(62.968445%, 61.659241%, 84.9823%)" offset="0.5"/><stop stop-opacity="1" stop-color="rgb(62.597656%, 61.817932%, 85.023499%)" offset="0.515625"/><stop stop-opacity="1" stop-color="rgb(62.226868%, 61.976624%, 85.066223%)" offset="0.53125"/><stop stop-opacity="1" stop-color="rgb(61.856079%, 62.133789%, 85.108948%)" offset="0.546875"/><stop stop-opacity="1" stop-color="rgb(61.485291%, 62.29248%, 85.150146%)" offset="0.5625"/><stop stop-opacity="1" stop-color="rgb(61.112976%, 62.451172%, 85.192871%)" offset="0.578125"/><stop stop-opacity="1" stop-color="rgb(60.742188%, 62.608337%, 85.235596%)" offset="0.59375"/><stop stop-opacity="1" stop-color="rgb(60.371399%, 62.767029%, 85.276794%)" offset="0.609375"/><stop stop-opacity="1" stop-color="rgb(60.00061%, 62.924194%, 85.319519%)" offset="0.625"/><stop stop-opacity="1" stop-color="rgb(59.629822%, 63.082886%, 85.360718%)" offset="0.640625"/><stop stop-opacity="1" stop-color="rgb(59.259033%, 63.241577%, 85.403442%)" offset="0.65625"/><stop stop-opacity="1" stop-color="rgb(58.888245%, 63.398743%, 85.446167%)" offset="0.671875"/><stop stop-opacity="1" stop-color="rgb(58.51593%, 63.557434%, 85.487366%)" offset="0.6875"/><stop stop-opacity="1" stop-color="rgb(58.145142%, 63.7146%, 85.53009%)" offset="0.703125"/><stop stop-opacity="1" stop-color="rgb(57.774353%, 63.873291%, 85.572815%)" offset="0.71875"/><stop stop-opacity="1" stop-color="rgb(57.403564%, 64.031982%, 85.614014%)" offset="0.718855"/><stop stop-opacity="1" stop-color="rgb(57.218933%, 64.111328%, 85.635376%)" offset="0.734375"/><stop stop-opacity="1" stop-color="rgb(57.032776%, 64.189148%, 85.656738%)" offset="0.75"/><stop stop-opacity="1" stop-color="rgb(56.661987%, 64.347839%, 85.697937%)" offset="0.765625"/><stop stop-opacity="1" stop-color="rgb(56.289673%, 64.506531%, 85.740662%)" offset="0.78125"/><stop stop-opacity="1" stop-color="rgb(55.918884%, 64.663696%, 85.783386%)" offset="0.796875"/><stop stop-opacity="1" stop-color="rgb(55.548096%, 64.822388%, 85.824585%)" offset="0.8125"/><stop stop-opacity="1" stop-color="rgb(55.177307%, 64.979553%, 85.86731%)" offset="0.828125"/><stop stop-opacity="1" stop-color="rgb(54.945374%, 65.078735%, 85.89325%)" offset="0.84375"/><stop stop-opacity="1" stop-color="rgb(54.899597%, 65.098572%, 85.899353%)" offset="0.875"/><stop stop-opacity="1" stop-color="rgb(54.899597%, 65.098572%, 85.899353%)" offset="1"/></linearGradient><linearGradient x1="8.942739" gradientTransform="matrix(1, -0, 0, 1, 0.0000188364, 0.00000231784)" y1="-11.443212" x2="36.83036" gradientUnits="userSpaceOnUse" y2="16.443308" id="e0c290f5b9"><stop stop-opacity="1" stop-color="rgb(72.499084%, 57.598877%, 83.898926%)" offset="0"/><stop stop-opacity="1" stop-color="rgb(72.328186%, 57.672119%, 83.918762%)" offset="0.0625"/><stop stop-opacity="1" stop-color="rgb(72.006226%, 57.809448%, 83.955383%)" offset="0.078125"/><stop stop-opacity="1" stop-color="rgb(71.704102%, 57.937622%, 83.988953%)" offset="0.0896455"/><stop stop-opacity="1" stop-color="rgb(71.55304%, 58.001709%, 84.007263%)" offset="0.09375"/><stop stop-opacity="1" stop-color="rgb(71.401978%, 58.065796%, 84.024048%)" offset="0.109375"/><stop stop-opacity="1" stop-color="rgb(71.099854%, 58.195496%, 84.057617%)" offset="0.125"/><stop stop-opacity="1" stop-color="rgb(70.797729%, 58.323669%, 84.092712%)" offset="0.140625"/><stop stop-opacity="1" stop-color="rgb(70.495605%, 58.451843%, 84.126282%)" offset="0.15625"/><stop stop-opacity="1" stop-color="rgb(70.193481%, 58.581543%, 84.161377%)" offset="0.171875"/><stop stop-opacity="1" stop-color="rgb(69.891357%, 58.709717%, 84.194946%)" offset="0.1875"/><stop stop-opacity="1" stop-color="rgb(69.589233%, 58.839417%, 84.230042%)" offset="0.203125"/><stop stop-opacity="1" stop-color="rgb(69.287109%, 58.96759%, 84.263611%)" offset="0.21875"/><stop stop-opacity="1" stop-color="rgb(68.984985%, 59.095764%, 84.298706%)" offset="0.234375"/><stop stop-opacity="1" stop-color="rgb(68.684387%, 59.225464%, 84.332275%)" offset="0.25"/><stop stop-opacity="1" stop-color="rgb(68.382263%, 59.353638%, 84.367371%)" offset="0.265625"/><stop stop-opacity="1" stop-color="rgb(68.080139%, 59.481812%, 84.40094%)" offset="0.28125"/><stop stop-opacity="1" stop-color="rgb(67.778015%, 59.611511%, 84.436035%)" offset="0.296875"/><stop stop-opacity="1" stop-color="rgb(67.475891%, 59.739685%, 84.469604%)" offset="0.3125"/><stop stop-opacity="1" stop-color="rgb(67.173767%, 59.867859%, 84.5047%)" offset="0.328125"/><stop stop-opacity="1" stop-color="rgb(66.871643%, 59.997559%, 84.538269%)" offset="0.34375"/><stop stop-opacity="1" stop-color="rgb(66.569519%, 60.125732%, 84.573364%)" offset="0.359375"/><stop stop-opacity="1" stop-color="rgb(66.267395%, 60.255432%, 84.606934%)" offset="0.375"/><stop stop-opacity="1" stop-color="rgb(65.965271%, 60.383606%, 84.642029%)" offset="0.390625"/><stop stop-opacity="1" stop-color="rgb(65.663147%, 60.51178%, 84.675598%)" offset="0.40625"/><stop stop-opacity="1" stop-color="rgb(65.361023%, 60.641479%, 84.710693%)" offset="0.421875"/><stop stop-opacity="1" stop-color="rgb(65.058899%, 60.769653%, 84.744263%)" offset="0.4375"/><stop stop-opacity="1" stop-color="rgb(64.756775%, 60.897827%, 84.779358%)" offset="0.453125"/><stop stop-opacity="1" stop-color="rgb(64.454651%, 61.027527%, 84.812927%)" offset="0.46875"/><stop stop-opacity="1" stop-color="rgb(64.152527%, 61.155701%, 84.848022%)" offset="0.484375"/><stop stop-opacity="1" stop-color="rgb(63.850403%, 61.283875%, 84.881592%)" offset="0.5"/><stop stop-opacity="1" stop-color="rgb(63.548279%, 61.413574%, 84.916687%)" offset="0.515625"/><stop stop-opacity="1" stop-color="rgb(63.246155%, 61.541748%, 84.950256%)" offset="0.53125"/><stop stop-opacity="1" stop-color="rgb(62.944031%, 61.671448%, 84.985352%)" offset="0.546875"/><stop stop-opacity="1" stop-color="rgb(62.641907%, 61.799622%, 85.018921%)" offset="0.5625"/><stop stop-opacity="1" stop-color="rgb(62.339783%, 61.927795%, 85.054016%)" offset="0.578125"/><stop stop-opacity="1" stop-color="rgb(62.037659%, 62.057495%, 85.087585%)" offset="0.59375"/><stop stop-opacity="1" stop-color="rgb(61.735535%, 62.185669%, 85.122681%)" offset="0.609375"/><stop stop-opacity="1" stop-color="rgb(61.433411%, 62.313843%, 85.15625%)" offset="0.625"/><stop stop-opacity="1" stop-color="rgb(61.131287%, 62.443542%, 85.191345%)" offset="0.640625"/><stop stop-opacity="1" stop-color="rgb(60.829163%, 62.571716%, 85.224915%)" offset="0.65625"/><stop stop-opacity="1" stop-color="rgb(60.527039%, 62.69989%, 85.26001%)" offset="0.671875"/><stop stop-opacity="1" stop-color="rgb(60.224915%, 62.82959%, 85.293579%)" offset="0.6875"/><stop stop-opacity="1" stop-color="rgb(59.922791%, 62.957764%, 85.328674%)" offset="0.703125"/><stop stop-opacity="1" stop-color="rgb(59.620667%, 63.087463%, 85.362244%)" offset="0.71875"/><stop stop-opacity="1" stop-color="rgb(59.318542%, 63.215637%, 85.397339%)" offset="0.734375"/><stop stop-opacity="1" stop-color="rgb(59.016418%, 63.343811%, 85.430908%)" offset="0.75"/><stop stop-opacity="1" stop-color="rgb(58.714294%, 63.473511%, 85.466003%)" offset="0.765625"/><stop stop-opacity="1" stop-color="rgb(58.41217%, 63.601685%, 85.499573%)" offset="0.78125"/><stop stop-opacity="1" stop-color="rgb(58.110046%, 63.729858%, 85.534668%)" offset="0.796875"/><stop stop-opacity="1" stop-color="rgb(57.807922%, 63.859558%, 85.568237%)" offset="0.8125"/><stop stop-opacity="1" stop-color="rgb(57.505798%, 63.987732%, 85.603333%)" offset="0.828125"/><stop stop-opacity="1" stop-color="rgb(57.203674%, 64.117432%, 85.636902%)" offset="0.84375"/><stop stop-opacity="1" stop-color="rgb(56.90155%, 64.245605%, 85.671997%)" offset="0.859375"/><stop stop-opacity="1" stop-color="rgb(56.599426%, 64.373779%, 85.705566%)" offset="0.875"/><stop stop-opacity="1" stop-color="rgb(56.297302%, 64.503479%, 85.740662%)" offset="0.890625"/><stop stop-opacity="1" stop-color="rgb(55.996704%, 64.631653%, 85.774231%)" offset="0.90625"/><stop stop-opacity="1" stop-color="rgb(55.69458%, 64.759827%, 85.8078%)" offset="0.910354"/><stop stop-opacity="1" stop-color="rgb(55.543518%, 64.825439%, 85.826111%)" offset="0.921875"/><stop stop-opacity="1" stop-color="rgb(55.392456%, 64.889526%, 85.842896%)" offset="0.9375"/><stop stop-opacity="1" stop-color="rgb(55.070496%, 65.02533%, 85.879517%)" offset="1"/></linearGradient></defs><g fill="#ffffff" fill-opacity="1"><g transform="translate(121.770304, 197.892437)"><g><path d="M 4.875 0 C 4.445312 0 4.082031 -0.144531 3.78125 -0.4375 C 3.476562 -0.738281 3.328125 -1.109375 3.328125 -1.546875 L 3.328125 -22.40625 C 3.328125 -22.84375 3.476562 -23.21875 3.78125 -23.53125 C 4.082031 -23.84375 4.445312 -24 4.875 -24 L 13 -24 C 15.445312 -24 17.335938 -23.4375 18.671875 -22.3125 C 20.015625 -21.1875 20.6875 -19.671875 20.6875 -17.765625 C 20.6875 -16.441406 20.367188 -15.335938 19.734375 -14.453125 C 19.109375 -13.566406 18.304688 -12.910156 17.328125 -12.484375 C 18.703125 -12.046875 19.828125 -11.34375 20.703125 -10.375 C 21.585938 -9.414062 22.03125 -8.203125 22.03125 -6.734375 C 22.03125 -4.628906 21.316406 -2.976562 19.890625 -1.78125 C 18.472656 -0.59375 16.242188 0 13.203125 0 Z M 12.171875 -13.609375 C 14.210938 -13.609375 15.644531 -13.953125 16.46875 -14.640625 C 17.289062 -15.328125 17.703125 -16.289062 17.703125 -17.53125 C 17.703125 -18.601562 17.257812 -19.460938 16.375 -20.109375 C 15.5 -20.753906 14.289062 -21.078125 12.75 -21.078125 L 6.46875 -21.078125 L 6.46875 -13.609375 Z M 12.890625 -2.921875 C 15.109375 -2.921875 16.679688 -3.265625 17.609375 -3.953125 C 18.546875 -4.640625 19.015625 -5.613281 19.015625 -6.875 C 19.015625 -9.488281 16.984375 -10.796875 12.921875 -10.796875 L 6.46875 -10.796875 L 6.46875 -2.921875 Z M 12.890625 -2.921875 "/></g></g></g><g fill="#ffffff" fill-opacity="1"><g transform="translate(145.584618, 197.892437)"><g><path d="M 6.640625 8.078125 C 6.222656 8.078125 5.867188 7.925781 5.578125 7.625 C 5.296875 7.332031 5.15625 6.976562 5.15625 6.5625 C 5.15625 6.382812 5.191406 6.203125 5.265625 6.015625 L 7.5 0.28125 L 1.03125 -15.46875 C 0.9375 -15.695312 0.890625 -15.914062 0.890625 -16.125 C 0.890625 -16.5625 1.035156 -16.929688 1.328125 -17.234375 C 1.628906 -17.546875 2 -17.703125 2.4375 -17.703125 C 2.757812 -17.703125 3.050781 -17.609375 3.3125 -17.421875 C 3.582031 -17.242188 3.773438 -17.015625 3.890625 -16.734375 L 9.171875 -3.609375 L 14.578125 -16.671875 C 14.867188 -17.359375 15.347656 -17.703125 16.015625 -17.703125 C 16.453125 -17.703125 16.816406 -17.546875 17.109375 -17.234375 C 17.410156 -16.929688 17.5625 -16.5625 17.5625 -16.125 C 17.5625 -15.914062 17.53125 -15.71875 17.46875 -15.53125 L 8.078125 7.015625 C 7.753906 7.722656 7.273438 8.078125 6.640625 8.078125 Z M 6.640625 8.078125 "/></g></g></g><g fill="#ffffff" fill-opacity="1"><g transform="translate(164.038138, 197.892437)"><g><path d="M 8.765625 0.34375 C 5.421875 0.34375 3.75 -1.164062 3.75 -4.1875 L 3.75 -14.84375 L 1.3125 -14.84375 C 1.125 -14.84375 0.96875 -14.90625 0.84375 -15.03125 C 0.71875 -15.164062 0.65625 -15.320312 0.65625 -15.5 C 0.65625 -15.726562 0.757812 -15.925781 0.96875 -16.09375 L 5.640625 -20.65625 C 5.847656 -20.863281 6.039062 -20.96875 6.21875 -20.96875 C 6.40625 -20.96875 6.5625 -20.898438 6.6875 -20.765625 C 6.8125 -20.628906 6.875 -20.46875 6.875 -20.28125 L 6.875 -17.53125 L 10.765625 -17.53125 C 11.148438 -17.53125 11.46875 -17.40625 11.71875 -17.15625 C 11.96875 -16.90625 12.09375 -16.582031 12.09375 -16.1875 C 12.09375 -15.820312 11.96875 -15.503906 11.71875 -15.234375 C 11.46875 -14.972656 11.148438 -14.84375 10.765625 -14.84375 L 6.875 -14.84375 L 6.875 -4.46875 C 6.875 -3.570312 7.082031 -3.003906 7.5 -2.765625 C 7.925781 -2.523438 8.460938 -2.40625 9.109375 -2.40625 C 9.566406 -2.40625 10.023438 -2.472656 10.484375 -2.609375 C 10.578125 -2.628906 10.675781 -2.648438 10.78125 -2.671875 C 10.882812 -2.703125 11.015625 -2.71875 11.171875 -2.71875 C 11.492188 -2.71875 11.78125 -2.597656 12.03125 -2.359375 C 12.28125 -2.117188 12.40625 -1.828125 12.40625 -1.484375 C 12.40625 -0.953125 12.144531 -0.550781 11.625 -0.28125 C 10.726562 0.132812 9.773438 0.34375 8.765625 0.34375 Z M 8.765625 0.34375 "/></g></g></g><g fill="#ffffff" fill-opacity="1"><g transform="translate(177.165217, 197.892437)"><g><path d="M 10.546875 0.34375 C 7.753906 0.34375 5.570312 -0.453125 4 -2.046875 C 2.4375 -3.640625 1.65625 -5.878906 1.65625 -8.765625 C 1.65625 -10.390625 1.953125 -11.890625 2.546875 -13.265625 C 3.140625 -14.640625 4.054688 -15.75 5.296875 -16.59375 C 6.535156 -17.445312 8.054688 -17.875 9.859375 -17.875 C 11.554688 -17.875 13.023438 -17.476562 14.265625 -16.6875 C 15.503906 -15.894531 16.441406 -14.835938 17.078125 -13.515625 C 17.722656 -12.203125 18.046875 -10.769531 18.046875 -9.21875 C 18.046875 -8.78125 17.898438 -8.410156 17.609375 -8.109375 C 17.328125 -7.816406 16.945312 -7.671875 16.46875 -7.671875 L 4.8125 -7.671875 C 5 -6.066406 5.59375 -4.816406 6.59375 -3.921875 C 7.601562 -3.023438 9.015625 -2.578125 10.828125 -2.578125 C 11.785156 -2.578125 12.625 -2.664062 13.34375 -2.84375 C 14.070312 -3.03125 14.78125 -3.296875 15.46875 -3.640625 C 15.65625 -3.734375 15.863281 -3.78125 16.09375 -3.78125 C 16.457031 -3.78125 16.773438 -3.65625 17.046875 -3.40625 C 17.328125 -3.15625 17.46875 -2.832031 17.46875 -2.4375 C 17.46875 -1.9375 17.164062 -1.515625 16.5625 -1.171875 C 15.675781 -0.660156 14.796875 -0.28125 13.921875 -0.03125 C 13.046875 0.21875 11.921875 0.34375 10.546875 0.34375 Z M 14.953125 -10.203125 C 14.878906 -11.328125 14.582031 -12.265625 14.0625 -13.015625 C 13.550781 -13.773438 12.914062 -14.332031 12.15625 -14.6875 C 11.40625 -15.050781 10.640625 -15.234375 9.859375 -15.234375 C 9.085938 -15.234375 8.320312 -15.050781 7.5625 -14.6875 C 6.800781 -14.332031 6.171875 -13.773438 5.671875 -13.015625 C 5.171875 -12.265625 4.882812 -11.328125 4.8125 -10.203125 Z M 14.953125 -10.203125 "/></g></g></g><g fill="#ffffff" fill-opacity="1"><g transform="translate(196.615288, 197.892437)"><g><path d="M 13.03125 0.34375 C 11.40625 0.34375 9.832031 0 8.3125 -0.6875 C 6.800781 -1.375 5.5625 -2.421875 4.59375 -3.828125 C 3.632812 -5.242188 3.15625 -6.96875 3.15625 -9 L 3.15625 -22.578125 C 3.15625 -23.015625 3.304688 -23.390625 3.609375 -23.703125 C 3.910156 -24.015625 4.273438 -24.171875 4.703125 -24.171875 C 5.140625 -24.171875 5.515625 -24.015625 5.828125 -23.703125 C 6.140625 -23.390625 6.296875 -23.015625 6.296875 -22.578125 L 6.296875 -8.90625 C 6.296875 -7.53125 6.609375 -6.359375 7.234375 -5.390625 C 7.867188 -4.429688 8.703125 -3.710938 9.734375 -3.234375 C 10.765625 -2.753906 11.863281 -2.515625 13.03125 -2.515625 C 14.195312 -2.515625 15.296875 -2.753906 16.328125 -3.234375 C 17.359375 -3.710938 18.1875 -4.429688 18.8125 -5.390625 C 19.445312 -6.359375 19.765625 -7.53125 19.765625 -8.90625 L 19.765625 -22.578125 C 19.765625 -23.015625 19.910156 -23.390625 20.203125 -23.703125 C 20.503906 -24.015625 20.875 -24.171875 21.3125 -24.171875 C 21.75 -24.171875 22.117188 -24.015625 22.421875 -23.703125 C 22.734375 -23.390625 22.890625 -23.015625 22.890625 -22.578125 L 22.890625 -9 C 22.890625 -6.96875 22.40625 -5.242188 21.4375 -3.828125 C 20.476562 -2.421875 19.242188 -1.375 17.734375 -0.6875 C 16.222656 0 14.65625 0.34375 13.03125 0.34375 Z M 13.03125 0.34375 "/></g></g></g><g fill="#ffffff" fill-opacity="1"><g transform="translate(222.663266, 197.892437)"><g><path d="M 4.265625 8.078125 C 3.828125 8.078125 3.457031 7.921875 3.15625 7.609375 C 2.863281 7.304688 2.71875 6.9375 2.71875 6.5 L 2.71875 -16.15625 C 2.71875 -16.59375 2.863281 -16.957031 3.15625 -17.25 C 3.457031 -17.550781 3.828125 -17.703125 4.265625 -17.703125 C 4.703125 -17.703125 5.070312 -17.550781 5.375 -17.25 C 5.6875 -16.957031 5.84375 -16.59375 5.84375 -16.15625 L 5.84375 -15.265625 C 7.519531 -17.003906 9.476562 -17.875 11.71875 -17.875 C 13.144531 -17.875 14.492188 -17.507812 15.765625 -16.78125 C 17.035156 -16.0625 18.066406 -15.007812 18.859375 -13.625 C 19.648438 -12.238281 20.046875 -10.617188 20.046875 -8.765625 C 20.046875 -6.910156 19.648438 -5.289062 18.859375 -3.90625 C 18.066406 -2.519531 17.035156 -1.460938 15.765625 -0.734375 C 14.492188 -0.015625 13.144531 0.34375 11.71875 0.34375 C 9.476562 0.34375 7.519531 -0.523438 5.84375 -2.265625 L 5.84375 6.5 C 5.84375 6.957031 5.691406 7.332031 5.390625 7.625 C 5.097656 7.925781 4.722656 8.078125 4.265625 8.078125 Z M 11.28125 -2.578125 C 12.96875 -2.578125 14.328125 -3.113281 15.359375 -4.1875 C 16.390625 -5.269531 16.90625 -6.796875 16.90625 -8.765625 C 16.90625 -10.734375 16.390625 -12.253906 15.359375 -13.328125 C 14.328125 -14.410156 12.96875 -14.953125 11.28125 -14.953125 C 10.21875 -14.953125 9.222656 -14.71875 8.296875 -14.25 C 7.367188 -13.78125 6.550781 -13.15625 5.84375 -12.375 L 5.84375 -5.15625 C 6.550781 -4.375 7.367188 -3.75 8.296875 -3.28125 C 9.222656 -2.8125 10.21875 -2.578125 11.28125 -2.578125 Z M 11.28125 -2.578125 "/></g></g></g><g fill="#ffffff" fill-opacity="1"><g transform="translate(244.347011, 197.892437)"><g/></g></g><g fill="#fbfdfc" fill-opacity="1"><g transform="translate(253.289518, 197.892437)"><g><path d="M 3.265625 0.171875 C 2.804688 0.171875 2.429688 0.0234375 2.140625 -0.265625 C 1.859375 -0.566406 1.71875 -0.9375 1.71875 -1.375 C 1.71875 -1.5625 1.773438 -1.789062 1.890625 -2.0625 L 10.65625 -22.75 C 10.84375 -23.164062 11.097656 -23.503906 11.421875 -23.765625 C 11.753906 -24.035156 12.164062 -24.171875 12.65625 -24.171875 L 13 -24.171875 C 13.476562 -24.171875 13.882812 -24.035156 14.21875 -23.765625 C 14.550781 -23.503906 14.804688 -23.164062 14.984375 -22.75 L 23.75 -2.0625 C 23.863281 -1.789062 23.921875 -1.5625 23.921875 -1.375 C 23.921875 -0.9375 23.773438 -0.566406 23.484375 -0.265625 C 23.203125 0.0234375 22.832031 0.171875 22.375 0.171875 C 22.050781 0.171875 21.757812 0.0859375 21.5 -0.078125 C 21.238281 -0.253906 21.039062 -0.492188 20.90625 -0.796875 L 18.671875 -6.15625 L 6.984375 -6.15625 L 4.75 -0.796875 C 4.601562 -0.492188 4.398438 -0.253906 4.140625 -0.078125 C 3.878906 0.0859375 3.585938 0.171875 3.265625 0.171875 Z M 8.1875 -9 L 17.46875 -9 L 12.828125 -20.171875 Z M 8.1875 -9 "/></g></g></g><g fill="#fbfdfc" fill-opacity="1"><g transform="translate(278.925128, 197.892437)"><g><path d="M 4.875 0.171875 C 4.445312 0.171875 4.082031 0.0234375 3.78125 -0.265625 C 3.476562 -0.566406 3.328125 -0.9375 3.328125 -1.375 L 3.328125 -22.578125 C 3.328125 -23.015625 3.476562 -23.390625 3.78125 -23.703125 C 4.082031 -24.015625 4.445312 -24.171875 4.875 -24.171875 C 5.3125 -24.171875 5.6875 -24.015625 6 -23.703125 C 6.3125 -23.390625 6.46875 -23.015625 6.46875 -22.578125 L 6.46875 -1.375 C 6.46875 -0.9375 6.3125 -0.566406 6 -0.265625 C 5.6875 0.0234375 5.3125 0.171875 4.875 0.171875 Z M 4.875 0.171875 "/></g></g></g><g clip-path="url(#ff7cfbb758)"><g clip-path="url(#8176ae0513)"><path fill="url(#31bc9e459a)" d="M 57.273438 162.441406 L 57.273438 212.558594 L 105.03125 212.558594 L 105.03125 162.441406 Z M 57.273438 162.441406 " fill-rule="nonzero"/></g></g><path stroke-linecap="butt" transform="matrix(0.75, -0.00000000000000186, 0.00000000000000186, 0.75, 252.655094, 204.921123)" fill="none" stroke-linejoin="miter" d="M 0.00154092 2.501002 L 45.772377 2.501002 " stroke="url(#e0c290f5b9)" stroke-width="5" stroke-miterlimit="4"/></svg>