<svg width="87" height="51" viewBox="0 0 87 51" fill="none" xmlns="http://www.w3.org/2000/svg">
<rect x="0.117676" y="0.883301" width="86.8823" height="49.2333" rx="24.6167" fill="#137213" fill-opacity="0.2"/>
<circle cx="61.6599" cy="24.7761" r="19.5485" fill="#137213"/>
<path d="M61.6593 16.5704V14.519M61.6593 32.9815V35.0329M55.93 19.0467L54.4794 17.5961M67.5345 30.6512L68.985 32.1017M53.4537 24.776H51.4023M69.8648 24.776H71.9162M67.535 19.0467L68.9855 17.5961M55.9305 30.6512L54.4799 32.1017M61.6593 29.9045C58.8269 29.9045 56.5308 27.6084 56.5308 24.776C56.5308 21.9436 58.8269 19.6475 61.6593 19.6475C64.4917 19.6475 66.7878 21.9436 66.7878 24.776C66.7878 27.6084 64.4917 29.9045 61.6593 29.9045Z" stroke="white" stroke-width="2" stroke-linecap="round" stroke-linejoin="round"/>
</svg>
