<svg width="43" height="44" viewBox="0 0 43 44" fill="none" xmlns="http://www.w3.org/2000/svg">
<path d="M14.3335 32.7497L21.5002 27.2851L28.6668 32.7497L25.9793 23.8809L33.146 18.7747H24.3668L21.5002 9.45801L18.6335 18.7747H9.85433L17.021 23.8809L14.3335 32.7497ZM21.5002 39.9163C19.0217 39.9163 16.6925 39.446 14.5127 38.5054C12.3328 37.5648 10.4366 36.2882 8.82412 34.6757C7.21162 33.0632 5.93506 31.167 4.99443 28.9872C4.05381 26.8073 3.5835 24.4781 3.5835 21.9997C3.5835 19.5212 4.05381 17.192 4.99443 15.0122C5.93506 12.8323 7.21162 10.9361 8.82412 9.32363C10.4366 7.71113 12.3328 6.43457 14.5127 5.49395C16.6925 4.55332 19.0217 4.08301 21.5002 4.08301C23.9786 4.08301 26.3078 4.55332 28.4877 5.49395C30.6675 6.43457 32.5637 7.71113 34.1762 9.32363C35.7887 10.9361 37.0653 12.8323 38.0059 15.0122C38.9465 17.192 39.4168 19.5212 39.4168 21.9997C39.4168 24.4781 38.9465 26.8073 38.0059 28.9872C37.0653 31.167 35.7887 33.0632 34.1762 34.6757C32.5637 36.2882 30.6675 37.5648 28.4877 38.5054C26.3078 39.446 23.9786 39.9163 21.5002 39.9163Z" fill="#DAA520"/>
</svg>
