<svg width="1460" height="361" viewBox="0 0 1460 361" fill="none" xmlns="http://www.w3.org/2000/svg">
<path fill-rule="evenodd" clip-rule="evenodd" d="M1 112.533C27.8793 100.357 59.9285 111.572 72.9245 138.065L80.4169 153.339C90.0922 173.062 114.306 180.673 133.525 170.032C142.055 165.309 152.06 164.005 161.515 166.385L168.005 168.018C184.684 172.216 202.275 166.261 212.975 152.797L226.291 136.041C235.677 124.229 253.31 123.363 263.809 134.197C276.894 147.699 299.641 142.463 305.507 124.6L327.107 58.8238C334.526 36.2287 360.306 25.5233 381.549 36.2158C386.974 38.9465 392.963 40.3688 399.037 40.3688H413.077C429.686 40.3688 446.023 44.5897 460.554 52.6351L470.05 57.8926C481.218 64.0763 493.59 67.7752 506.32 68.7363L514.225 69.3331C528.104 70.3811 541.276 75.8754 551.786 85.0011L566.844 98.0749C577.363 107.208 592.329 109.156 604.835 103.018C620.738 95.2133 639.968 100.658 649.418 115.642L656.266 126.5C670.299 148.75 699.41 155.926 722.177 142.748L730 138.219V278.906H1V112.533Z" fill="url(#paint0_linear_33_145)"/>
<path d="M1 112.533V112.533C27.8793 100.357 59.9285 111.572 72.9244 138.065L80.4169 153.339C90.0922 173.062 114.306 180.673 133.525 170.032V170.032C142.055 165.309 152.06 164.005 161.515 166.385L168.005 168.018C184.684 172.216 202.275 166.261 212.975 152.797L226.291 136.041C235.677 124.229 253.31 123.363 263.809 134.197V134.197C276.894 147.699 299.641 142.463 305.507 124.6L327.107 58.8238C334.526 36.2287 360.306 25.5233 381.549 36.2158V36.2158C386.974 38.9465 392.963 40.3688 399.037 40.3688H413.077C429.686 40.3688 446.023 44.5897 460.554 52.6351L470.05 57.8926C481.218 64.0763 493.59 67.7752 506.32 68.7363L514.224 69.3331C528.104 70.3811 541.276 75.8754 551.786 85.0011L566.844 98.0749C577.363 107.208 592.329 109.156 604.835 103.018V103.018C620.738 95.2133 639.968 100.658 649.418 115.642L656.266 126.5C670.299 148.75 699.41 155.926 722.176 142.748L730 138.219" stroke="#09D0A8" stroke-width="1.5"/>
<path fill-rule="evenodd" clip-rule="evenodd" d="M730.001 136.947L733.512 133.592C755.841 112.261 792.464 118.777 806.064 146.501L809.418 153.339C819.093 173.062 843.306 180.673 862.526 170.032C871.055 165.309 881.061 164.005 890.516 166.385L897.006 168.018C913.684 172.216 931.276 166.261 941.976 152.797L955.292 136.041C964.678 124.229 982.31 123.363 992.81 134.197C1005.9 147.699 1028.64 142.463 1034.51 124.6L1056.11 58.8238C1063.53 36.2287 1089.31 25.5233 1110.55 36.2158C1115.98 38.9465 1121.96 40.3688 1128.04 40.3688H1142.08C1158.69 40.3688 1175.02 44.5897 1189.56 52.6351L1199.05 57.8926C1210.22 64.0763 1222.59 67.7752 1235.32 68.7363L1243.23 69.3331C1257.1 70.3811 1270.28 75.8754 1280.79 85.0011L1295.84 98.0749C1306.36 107.208 1321.33 109.156 1333.84 103.018C1349.74 95.2133 1368.97 100.658 1378.42 115.642L1385.27 126.5C1399.3 148.75 1428.41 155.926 1451.18 142.748L1459 138.219V278.906H730.001V136.947Z" fill="url(#paint1_linear_33_145)"/>
<path d="M729.626 138.59L733.824 134.468C755.869 112.83 792.629 119.114 806.233 146.847L809.418 153.339C819.093 173.062 843.306 180.673 862.526 170.032V170.032C871.055 165.309 881.061 164.005 890.516 166.385L897.006 168.018C913.685 172.216 931.276 166.261 941.976 152.797L955.292 136.041C964.678 124.229 982.31 123.363 992.81 134.197V134.197C1005.9 147.699 1028.64 142.463 1034.51 124.6L1056.11 58.8238C1063.53 36.2287 1089.31 25.5233 1110.55 36.2158V36.2158C1115.98 38.9465 1121.96 40.3688 1128.04 40.3688H1142.08C1158.69 40.3688 1175.02 44.5897 1189.55 52.6351L1199.05 57.8926C1210.22 64.0763 1222.59 67.7752 1235.32 68.7363L1243.23 69.3331C1257.1 70.3811 1270.28 75.8754 1280.79 85.0011L1295.84 98.0749C1306.36 107.208 1321.33 109.156 1333.84 103.018V103.018C1349.74 95.2133 1368.97 100.658 1378.42 115.642L1385.27 126.5C1399.3 148.75 1428.41 155.926 1451.18 142.748L1459 138.219" stroke="#09D0A8" stroke-width="1.5"/>
<path d="M18.9588 337.679H20.5568L23.3352 344.463H23.4375L26.2159 337.679H27.8139V346.406H26.5611V340.091H26.4801L23.9062 346.393H22.8665L20.2926 340.087H20.2116V346.406H18.9588V337.679ZM31.5021 346.551C31.0873 346.551 30.7123 346.474 30.3771 346.321C30.0419 346.165 29.7762 345.939 29.5802 345.643C29.387 345.348 29.2904 344.986 29.2904 344.557C29.2904 344.187 29.3615 343.884 29.5035 343.645C29.6456 343.406 29.8373 343.217 30.0788 343.078C30.3203 342.939 30.5902 342.834 30.8885 342.763C31.1868 342.692 31.4907 342.638 31.8004 342.601C32.1924 342.555 32.5106 342.518 32.7549 342.49C32.9993 342.459 33.1768 342.409 33.2876 342.341C33.3984 342.273 33.4538 342.162 33.4538 342.009V341.979C33.4538 341.607 33.3487 341.318 33.1385 341.114C32.9311 340.909 32.6214 340.807 32.2095 340.807C31.7805 340.807 31.4424 340.902 31.1953 341.092C30.951 341.28 30.7819 341.489 30.6882 341.719L29.4907 341.446C29.6328 341.048 29.8402 340.727 30.1129 340.483C30.3885 340.236 30.7052 340.057 31.0632 339.946C31.4211 339.832 31.7975 339.776 32.1924 339.776C32.4538 339.776 32.7308 339.807 33.0234 339.869C33.3189 339.929 33.5944 340.04 33.8501 340.202C34.1086 340.364 34.3203 340.595 34.485 340.896C34.6498 341.195 34.7322 341.582 34.7322 342.06V346.406H33.4879V345.511H33.4368C33.3544 345.676 33.2308 345.838 33.066 345.997C32.9012 346.156 32.6896 346.288 32.4311 346.393C32.1725 346.499 31.8629 346.551 31.5021 346.551ZM31.7791 345.528C32.1314 345.528 32.4325 345.459 32.6825 345.32C32.9353 345.18 33.1271 344.999 33.2578 344.774C33.3913 344.547 33.4581 344.304 33.4581 344.045V343.202C33.4126 343.247 33.3245 343.29 33.1939 343.33C33.066 343.366 32.9197 343.399 32.7549 343.428C32.5902 343.453 32.4297 343.477 32.2734 343.5C32.1172 343.52 31.9865 343.537 31.8814 343.551C31.6342 343.582 31.4083 343.635 31.2038 343.709C31.0021 343.783 30.8402 343.889 30.718 344.028C30.5987 344.165 30.539 344.347 30.539 344.574C30.539 344.889 30.6555 345.128 30.8885 345.29C31.1214 345.449 31.4183 345.528 31.7791 345.528ZM37.4062 339.861L38.8508 342.409L40.3082 339.861H41.7016L39.6604 343.134L41.7187 346.406H40.3252L38.8508 343.96L37.3806 346.406H35.9829L38.0198 343.134L36.0085 339.861H37.4062Z" fill="#AAB3BB"/>
<path d="M185.706 337.679V346.406H184.385V339H184.334L182.246 340.364V339.102L184.423 337.679H185.706ZM188.157 346.406V337.679H189.474V341.472H193.825V337.679H195.146V346.406H193.825V342.601H189.474V346.406H188.157Z" fill="#AAB3BB"/>
<path d="M335.767 344.702V343.636L339.539 337.679H340.378V339.247H339.845L337.148 343.517V343.585H342.317V344.702H335.767ZM339.905 346.406V344.378L339.914 343.892V337.679H341.162V346.406H339.905ZM343.893 346.406V337.679H345.209V341.472H349.56V337.679H350.881V346.406H349.56V342.601H345.209V346.406H343.893Z" fill="#AAB3BB"/>
<path d="M494.553 346.526C494.164 346.52 493.78 346.449 493.402 346.312C493.027 346.176 492.687 345.949 492.38 345.631C492.073 345.312 491.827 344.885 491.643 344.348C491.461 343.811 491.37 343.141 491.37 342.337C491.37 341.575 491.445 340.899 491.596 340.308C491.749 339.717 491.969 339.219 492.256 338.812C492.543 338.403 492.89 338.092 493.296 337.879C493.702 337.666 494.158 337.56 494.664 337.56C495.184 337.56 495.645 337.662 496.049 337.866C496.452 338.071 496.779 338.354 497.029 338.714C497.282 339.075 497.442 339.486 497.51 339.946H496.211C496.123 339.582 495.948 339.286 495.687 339.055C495.425 338.825 495.084 338.71 494.664 338.71C494.025 338.71 493.526 338.989 493.168 339.545C492.813 340.102 492.634 340.876 492.631 341.868H492.695C492.846 341.621 493.03 341.411 493.249 341.237C493.471 341.061 493.718 340.926 493.991 340.832C494.266 340.736 494.556 340.688 494.86 340.688C495.366 340.688 495.823 340.811 496.232 341.058C496.644 341.303 496.972 341.641 497.216 342.072C497.461 342.504 497.583 342.999 497.583 343.555C497.583 344.112 497.456 344.616 497.204 345.068C496.954 345.52 496.601 345.878 496.147 346.142C495.692 346.403 495.161 346.531 494.553 346.526ZM494.549 345.418C494.884 345.418 495.184 345.335 495.448 345.17C495.712 345.006 495.921 344.784 496.074 344.506C496.228 344.227 496.304 343.916 496.304 343.572C496.304 343.237 496.229 342.932 496.079 342.656C495.931 342.381 495.726 342.162 495.465 342C495.206 341.838 494.911 341.757 494.579 341.757C494.326 341.757 494.091 341.805 493.875 341.902C493.662 341.999 493.475 342.132 493.313 342.303C493.151 342.473 493.023 342.669 492.929 342.891C492.839 343.109 492.793 343.341 492.793 343.585C492.793 343.912 492.868 344.214 493.019 344.493C493.172 344.771 493.381 344.996 493.645 345.166C493.912 345.334 494.214 345.418 494.549 345.418ZM499.226 346.406V337.679H500.542V341.472H504.893V337.679H506.214V346.406H504.893V342.601H500.542V346.406H499.226Z" fill="#AAB3BB"/>
<path d="M650.373 337.679V346.406H649.052V339H649.001L646.913 340.364V339.102L649.09 337.679H650.373ZM652.705 346.406V345.452L655.658 342.392C655.973 342.06 656.233 341.768 656.438 341.518C656.645 341.266 656.8 341.026 656.902 340.798C657.005 340.571 657.056 340.33 657.056 340.074C657.056 339.784 656.987 339.534 656.851 339.324C656.715 339.111 656.529 338.947 656.293 338.834C656.057 338.717 655.791 338.659 655.496 338.659C655.183 338.659 654.911 338.723 654.678 338.851C654.445 338.979 654.266 339.159 654.141 339.392C654.016 339.625 653.953 339.898 653.953 340.21H652.696C652.696 339.679 652.818 339.214 653.063 338.817C653.307 338.419 653.642 338.111 654.068 337.892C654.495 337.67 654.979 337.56 655.522 337.56C656.07 337.56 656.553 337.669 656.97 337.888C657.391 338.104 657.719 338.399 657.955 338.774C658.191 339.146 658.308 339.567 658.308 340.036C658.308 340.359 658.247 340.676 658.125 340.986C658.006 341.295 657.797 341.641 657.499 342.021C657.201 342.399 656.786 342.858 656.255 343.398L654.52 345.213V345.277H658.449V346.406H652.705ZM660.155 346.406V337.679H661.471V341.472H665.822V337.679H667.143V346.406H665.822V342.601H661.471V346.406H660.155Z" fill="#AAB3BB"/>
<g filter="url(#filter0_d_33_145)">
<rect x="806.778" y="331.906" width="45" height="20" rx="10" fill="#374F60"/>
</g>
<path d="M826.928 337.679V346.406H825.607V339H825.556L823.468 340.364V339.102L825.646 337.679H826.928ZM832.205 346.406H829.38V337.679H832.294C833.15 337.679 833.884 337.854 834.498 338.203C835.111 338.55 835.581 339.048 835.908 339.699C836.238 340.347 836.402 341.124 836.402 342.03C836.402 342.939 836.236 343.72 835.904 344.374C835.574 345.027 835.097 345.53 834.472 345.882C833.847 346.232 833.091 346.406 832.205 346.406ZM830.696 345.256H832.132C832.797 345.256 833.35 345.131 833.79 344.881C834.231 344.628 834.56 344.263 834.779 343.786C834.998 343.305 835.107 342.72 835.107 342.03C835.107 341.345 834.998 340.764 834.779 340.287C834.563 339.81 834.24 339.447 833.811 339.2C833.382 338.953 832.85 338.83 832.213 338.83H830.696V345.256Z" fill="white"/>
<path d="M994.484 337.679V346.406H993.163V339H993.112L991.024 340.364V339.102L993.201 337.679H994.484ZM998.644 346.406L996.224 337.679H997.608L999.309 344.438H999.39L1001.16 337.679H1002.53L1004.3 344.442H1004.38L1006.08 337.679H1007.47L1005.04 346.406H1003.72L1001.88 339.869H1001.81L999.974 346.406H998.644Z" fill="#AAB3BB"/>
<path d="M1149.51 334.866V349.219H1148.37V334.866H1149.51Z" fill="#AAB3BB"/>
<path d="M1300.07 337.938C1300.07 337.582 1300.34 337.281 1300.73 337.281H1305.54C1305.89 337.281 1306.19 337.582 1306.19 337.938V342.75C1306.19 343.133 1305.89 343.406 1305.54 343.406C1305.16 343.406 1304.88 343.133 1304.88 342.75V339.523L1299.66 344.746C1299.39 345.02 1298.98 345.02 1298.73 344.746L1295.69 341.711L1291.57 345.84C1291.29 346.113 1290.88 346.113 1290.64 345.84C1290.36 345.594 1290.36 345.184 1290.64 344.938L1295.23 340.316C1295.48 340.07 1295.89 340.07 1296.13 340.316L1299.17 343.352L1303.95 338.594H1300.73C1300.34 338.594 1300.07 338.32 1300.07 337.938Z" fill="#696F74"/>
<path d="M1447.19 336.844V339.469H1449.81V336.844H1447.19ZM1445.88 336.844C1445.88 336.133 1446.45 335.531 1447.19 335.531H1449.81C1450.52 335.531 1451.12 336.133 1451.12 336.844V339.469C1451.12 340.207 1450.52 340.781 1449.81 340.781H1447.19C1446.45 340.781 1445.88 340.207 1445.88 339.469V336.844ZM1447.19 343.844V346.469H1449.81V343.844H1447.19ZM1445.88 343.844C1445.88 343.133 1446.45 342.531 1447.19 342.531H1449.81C1450.52 342.531 1451.12 343.133 1451.12 343.844V346.469C1451.12 347.207 1450.52 347.781 1449.81 347.781H1447.19C1446.45 347.781 1445.88 347.207 1445.88 346.469V343.844ZM1456.81 336.844H1454.19V339.469H1456.81V336.844ZM1454.19 335.531H1456.81C1457.52 335.531 1458.12 336.133 1458.12 336.844V339.469C1458.12 340.207 1457.52 340.781 1456.81 340.781H1454.19C1453.45 340.781 1452.88 340.207 1452.88 339.469V336.844C1452.88 336.133 1453.45 335.531 1454.19 335.531ZM1454.19 343.844V346.469H1456.81V343.844H1454.19ZM1452.88 343.844C1452.88 343.133 1453.45 342.531 1454.19 342.531H1456.81C1457.52 342.531 1458.12 343.133 1458.12 343.844V346.469C1458.12 347.207 1457.52 347.781 1456.81 347.781H1454.19C1453.45 347.781 1452.88 347.207 1452.88 346.469V343.844Z" fill="#696F74"/>
<path d="M3.61743 58.6748L373.235 59.8563" stroke="#AAA4A4" stroke-opacity="0.5" stroke-width="1.2" stroke-dasharray="2 2"/>
<path d="M243.989 58.7158V254.802" stroke="#AAA4A4" stroke-opacity="0.5" stroke-width="1.2" stroke-dasharray="2 2"/>
<circle cx="244.586" cy="59.2656" r="5" fill="white" stroke="#1D8147" stroke-width="4"/>
<path d="M203.833 4.72443V14.9062H201.68V6.76776H201.621L199.289 8.2294V6.32031L201.81 4.72443H203.833ZM206.099 13.1165V11.4212L210.35 4.72443H211.811V7.07102H210.946L208.267 11.3118V11.3913H214.307V13.1165H206.099ZM210.986 14.9062V12.5994L211.026 11.8487V4.72443H213.044V14.9062H210.986ZM219.733 15.13C218.878 15.1267 218.143 14.9162 217.526 14.4986C216.913 14.081 216.441 13.4761 216.109 12.6839C215.781 11.8918 215.619 10.9389 215.622 9.82528C215.622 8.71496 215.786 7.7687 216.114 6.98651C216.446 6.20431 216.918 5.60937 217.531 5.2017C218.148 4.79072 218.882 4.58523 219.733 4.58523C220.585 4.58523 221.318 4.79072 221.931 5.2017C222.547 5.61269 223.021 6.20928 223.353 6.99148C223.684 7.77036 223.848 8.71496 223.845 9.82528C223.845 10.9422 223.679 11.8968 223.348 12.6889C223.02 13.4811 222.549 14.0859 221.936 14.5036C221.323 14.9212 220.589 15.13 219.733 15.13ZM219.733 13.3452C220.317 13.3452 220.782 13.0518 221.131 12.4652C221.479 11.8786 221.651 10.9986 221.648 9.82528C221.648 9.05303 221.568 8.41004 221.409 7.89631C221.253 7.38258 221.031 6.99645 220.743 6.73793C220.458 6.4794 220.121 6.35014 219.733 6.35014C219.153 6.35014 218.689 6.64015 218.341 7.22017C217.993 7.80019 217.818 8.66856 217.814 9.82528C217.814 10.6075 217.892 11.2604 218.048 11.7841C218.207 12.3045 218.431 12.6955 218.719 12.9574C219.008 13.2159 219.346 13.3452 219.733 13.3452ZM226.228 15.0355C225.9 15.0355 225.618 14.9195 225.382 14.6875C225.15 14.4522 225.034 14.1705 225.034 13.8423C225.034 13.5175 225.15 13.2391 225.382 13.0071C225.618 12.7751 225.9 12.6591 226.228 12.6591C226.546 12.6591 226.824 12.7751 227.063 13.0071C227.301 13.2391 227.421 13.5175 227.421 13.8423C227.421 14.0611 227.364 14.2616 227.252 14.4439C227.142 14.6229 226.998 14.767 226.819 14.8764C226.64 14.9825 226.443 15.0355 226.228 15.0355ZM232.528 15.0455C231.762 15.0455 231.081 14.9212 230.485 14.6726C229.891 14.4207 229.426 14.0777 229.088 13.6435C228.749 13.2093 228.58 12.7171 228.58 12.1669C228.58 11.7427 228.677 11.3532 228.869 10.9986C229.064 10.6406 229.329 10.344 229.664 10.1087C229.999 9.87003 230.374 9.71757 230.788 9.65128V9.58168C230.244 9.4723 229.803 9.20881 229.465 8.79119C229.127 8.37026 228.958 7.88139 228.958 7.32457C228.958 6.79759 229.112 6.3286 229.421 5.91761C229.729 5.50331 230.151 5.1785 230.688 4.94318C231.229 4.70455 231.842 4.58523 232.528 4.58523C233.214 4.58523 233.825 4.70455 234.362 4.94318C234.903 5.18182 235.327 5.50829 235.635 5.92258C235.943 6.33357 236.099 6.8009 236.102 7.32457C236.099 7.88471 235.927 8.37358 235.585 8.79119C235.244 9.20881 234.807 9.4723 234.273 9.58168V9.65128C234.681 9.71757 235.05 9.87003 235.382 10.1087C235.716 10.344 235.981 10.6406 236.177 10.9986C236.376 11.3532 236.477 11.7427 236.48 12.1669C236.477 12.7171 236.306 13.2093 235.968 13.6435C235.63 14.0777 235.163 14.4207 234.566 14.6726C233.973 14.9212 233.294 15.0455 232.528 15.0455ZM232.528 13.4645C232.869 13.4645 233.168 13.4032 233.423 13.2805C233.678 13.1546 233.877 12.9822 234.019 12.7635C234.165 12.5414 234.238 12.2862 234.238 11.9979C234.238 11.7029 234.164 11.4427 234.014 11.2173C233.865 10.9886 233.663 10.8097 233.408 10.6804C233.153 10.5478 232.859 10.4815 232.528 10.4815C232.2 10.4815 231.906 10.5478 231.648 10.6804C231.389 10.8097 231.186 10.9886 231.036 11.2173C230.891 11.4427 230.818 11.7029 230.818 11.9979C230.818 12.2862 230.889 12.5414 231.031 12.7635C231.174 12.9822 231.374 13.1546 231.633 13.2805C231.892 13.4032 232.19 13.4645 232.528 13.4645ZM232.528 8.91548C232.813 8.91548 233.066 8.85748 233.289 8.74148C233.511 8.62547 233.685 8.46473 233.811 8.25923C233.936 8.05374 233.999 7.81676 233.999 7.5483C233.999 7.28314 233.936 7.05114 233.811 6.85227C233.685 6.65009 233.512 6.49266 233.294 6.37997C233.075 6.26397 232.82 6.20597 232.528 6.20597C232.24 6.20597 231.984 6.26397 231.762 6.37997C231.54 6.49266 231.366 6.65009 231.24 6.85227C231.118 7.05114 231.056 7.28314 231.056 7.5483C231.056 7.81676 231.119 8.05374 231.245 8.25923C231.371 8.46473 231.545 8.62547 231.767 8.74148C231.989 8.85748 232.243 8.91548 232.528 8.91548ZM241.704 15.0455C241.002 15.0455 240.375 14.9162 239.825 14.6577C239.278 14.3991 238.844 14.0429 238.522 13.5888C238.201 13.1347 238.033 12.6143 238.02 12.0277H240.108C240.132 12.4221 240.297 12.742 240.605 12.9872C240.914 13.2325 241.28 13.3551 241.704 13.3551C242.042 13.3551 242.341 13.2805 242.599 13.1314C242.861 12.9789 243.065 12.7685 243.211 12.5C243.36 12.2282 243.434 11.9167 243.434 11.5653C243.434 11.2074 243.358 10.8925 243.206 10.6207C243.056 10.349 242.849 10.1368 242.584 9.98438C242.319 9.83191 242.016 9.75402 241.674 9.75071C241.376 9.75071 241.086 9.81203 240.804 9.93466C240.526 10.0573 240.309 10.2247 240.153 10.4368L238.239 10.0938L238.721 4.72443H244.946V6.48438H240.496L240.233 9.0348H240.292C240.471 8.78291 240.741 8.5741 241.103 8.40838C241.464 8.24266 241.868 8.1598 242.316 8.1598C242.929 8.1598 243.476 8.30398 243.956 8.59233C244.437 8.88068 244.816 9.27675 245.095 9.78054C245.373 10.281 245.511 10.8577 245.507 11.5107C245.511 12.1967 245.352 12.8066 245.03 13.3402C244.712 13.8705 244.266 14.2881 243.693 14.593C243.123 14.8946 242.46 15.0455 241.704 15.0455ZM254.679 4.72443V14.9062H252.526V6.76776H252.466L250.135 8.2294V6.32031L252.655 4.72443H254.679ZM256.945 13.1165V11.4212L261.195 4.72443H262.657V7.07102H261.792L259.112 11.3118V11.3913H265.153V13.1165H256.945ZM261.832 14.9062V12.5994L261.871 11.8487V4.72443H263.89V14.9062H261.832ZM267.845 13.723C267.517 13.723 267.235 13.607 267 13.375C266.768 13.143 266.652 12.8613 266.652 12.5298C266.652 12.205 266.768 11.9266 267 11.6946C267.235 11.4626 267.517 11.3466 267.845 11.3466C268.163 11.3466 268.441 11.4626 268.68 11.6946C268.919 11.9266 269.038 12.205 269.038 12.5298C269.038 12.7486 268.982 12.9491 268.869 13.1314C268.76 13.3104 268.615 13.4545 268.436 13.5639C268.257 13.67 268.06 13.723 267.845 13.723ZM267.845 8.72656C267.517 8.72656 267.235 8.61056 267 8.37855C266.768 8.14654 266.652 7.86482 266.652 7.53338C266.652 7.20857 266.768 6.93182 267 6.70312C267.235 6.47112 267.517 6.35511 267.845 6.35511C268.163 6.35511 268.441 6.47112 268.68 6.70312C268.919 6.93182 269.038 7.20857 269.038 7.53338C269.038 7.75544 268.982 7.95762 268.869 8.13991C268.76 8.31889 268.615 8.46141 268.436 8.56747C268.257 8.67353 268.06 8.72656 267.845 8.72656ZM274.749 15.13C273.894 15.1267 273.158 14.9162 272.542 14.4986C271.929 14.081 271.456 13.4761 271.125 12.6839C270.797 11.8918 270.634 10.9389 270.638 9.82528C270.638 8.71496 270.802 7.7687 271.13 6.98651C271.461 6.20431 271.934 5.60937 272.547 5.2017C273.163 4.79072 273.897 4.58523 274.749 4.58523C275.601 4.58523 276.333 4.79072 276.947 5.2017C277.563 5.61269 278.037 6.20928 278.368 6.99148C278.7 7.77036 278.864 8.71496 278.861 9.82528C278.861 10.9422 278.695 11.8968 278.363 12.6889C278.035 13.4811 277.565 14.0859 276.952 14.5036C276.338 14.9212 275.604 15.13 274.749 15.13ZM274.749 13.3452C275.332 13.3452 275.798 13.0518 276.146 12.4652C276.494 11.8786 276.666 10.9986 276.663 9.82528C276.663 9.05303 276.584 8.41004 276.425 7.89631C276.269 7.38258 276.047 6.99645 275.758 6.73793C275.473 6.4794 275.137 6.35014 274.749 6.35014C274.169 6.35014 273.705 6.64015 273.357 7.22017C273.009 7.80019 272.833 8.66856 272.83 9.82528C272.83 10.6075 272.908 11.2604 273.064 11.7841C273.223 12.3045 273.447 12.6955 273.735 12.9574C274.023 13.2159 274.361 13.3452 274.749 13.3452ZM284.114 15.0455C283.412 15.0455 282.785 14.9162 282.235 14.6577C281.688 14.3991 281.254 14.0429 280.933 13.5888C280.611 13.1347 280.444 12.6143 280.43 12.0277H282.518C282.542 12.4221 282.707 12.742 283.016 12.9872C283.324 13.2325 283.69 13.3551 284.114 13.3551C284.452 13.3551 284.751 13.2805 285.009 13.1314C285.271 12.9789 285.475 12.7685 285.621 12.5C285.77 12.2282 285.844 11.9167 285.844 11.5653C285.844 11.2074 285.768 10.8925 285.616 10.6207C285.467 10.349 285.259 10.1368 284.994 9.98438C284.729 9.83191 284.426 9.75402 284.085 9.75071C283.786 9.75071 283.496 9.81203 283.214 9.93466C282.936 10.0573 282.719 10.2247 282.563 10.4368L280.649 10.0938L281.131 4.72443H287.356V6.48438H282.906L282.643 9.0348H282.702C282.881 8.78291 283.152 8.5741 283.513 8.40838C283.874 8.24266 284.278 8.1598 284.726 8.1598C285.339 8.1598 285.886 8.30398 286.366 8.59233C286.847 8.88068 287.227 9.27675 287.505 9.78054C287.783 10.281 287.921 10.8577 287.918 11.5107C287.921 12.1967 287.762 12.8066 287.44 13.3402C287.122 13.8705 286.676 14.2881 286.103 14.593C285.533 14.8946 284.87 15.0455 284.114 15.0455Z" fill="white"/>
<g clip-path="url(#clip0_33_145)">
<path d="M214.602 29.9766V29.0273H217.227V26.3438H218.176V29.0273H220.801V29.9766H218.176V32.6602H217.227V29.9766H214.602ZM224.492 32.9062V25.623H224.399L222.248 27.1816V26.0684L224.498 24.4512H225.547V32.9062H224.492ZM227.99 32.9062V32.1797L230.85 29.0859C231.928 27.9199 232.244 27.4805 232.244 26.7422V26.7305C232.244 25.8398 231.641 25.1719 230.645 25.1719C229.631 25.1719 228.957 25.834 228.957 26.8301L228.951 26.8418L227.944 26.8359L227.932 26.8301C227.938 25.3301 229.098 24.252 230.715 24.252C232.192 24.252 233.322 25.2539 233.322 26.6191V26.6309C233.322 27.5977 232.906 28.3008 231.377 29.877L229.455 31.8633V31.957H233.463V32.9062H227.99ZM234.805 35.0566L235.315 31.7227H236.481L235.561 35.0566H234.805ZM241.01 33.1055C239.434 33.1055 238.309 32.0918 238.186 30.7383L238.18 30.6738H239.194L239.199 30.7207C239.299 31.5293 240.031 32.1738 241.022 32.1738C242.147 32.1738 242.92 31.3711 242.92 30.2285V30.2168C242.92 29.0918 242.135 28.2891 241.039 28.2891C240.477 28.2891 239.996 28.459 239.633 28.8047C239.487 28.9453 239.352 29.1094 239.246 29.3086H238.332L238.778 24.4512H243.483V25.3945H239.61L239.322 28.2539H239.416C239.791 27.6855 240.453 27.375 241.221 27.375C242.809 27.375 243.951 28.5645 243.951 30.1992V30.2109C243.951 31.916 242.727 33.1055 241.01 33.1055ZM247.227 28.8984C246.149 28.8984 245.498 28.0195 245.498 26.6191V26.6133C245.498 25.2129 246.149 24.3398 247.227 24.3398C248.305 24.3398 248.961 25.2129 248.961 26.6133V26.6191C248.961 28.0195 248.305 28.8984 247.227 28.8984ZM247.86 32.9062H246.91L252.664 24.4512H253.613L247.86 32.9062ZM247.227 28.2012C247.807 28.2012 248.147 27.6094 248.147 26.6191V26.6133C248.147 25.623 247.807 25.0371 247.227 25.0371C246.647 25.0371 246.313 25.623 246.313 26.6133V26.6191C246.313 27.6094 246.647 28.2012 247.227 28.2012ZM253.285 33.0176C252.207 33.0176 251.557 32.1387 251.557 30.7383V30.7324C251.557 29.332 252.207 28.459 253.285 28.459C254.363 28.459 255.02 29.332 255.02 30.7324V30.7383C255.02 32.1387 254.363 33.0176 253.285 33.0176ZM253.285 32.3203C253.865 32.3203 254.205 31.7285 254.205 30.7383V30.7324C254.205 29.7422 253.865 29.1562 253.285 29.1562C252.705 29.1562 252.371 29.7422 252.371 30.7324V30.7383C252.371 31.7285 252.705 32.3203 253.285 32.3203Z" fill="#22B496"/>
<path fill-rule="evenodd" clip-rule="evenodd" d="M263.117 31.5059L268.443 26.9459L273.77 31.5059" fill="#22B496"/>
</g>
<defs>
<filter id="filter0_d_33_145" x="801.778" y="330.906" width="55" height="30" filterUnits="userSpaceOnUse" color-interpolation-filters="sRGB">
<feFlood flood-opacity="0" result="BackgroundImageFix"/>
<feColorMatrix in="SourceAlpha" type="matrix" values="0 0 0 0 0 0 0 0 0 0 0 0 0 0 0 0 0 0 127 0" result="hardAlpha"/>
<feOffset dy="4"/>
<feGaussianBlur stdDeviation="2.5"/>
<feColorMatrix type="matrix" values="0 0 0 0 0 0 0 0 0 0 0 0 0 0 0 0 0 0 0.06 0"/>
<feBlend mode="normal" in2="BackgroundImageFix" result="effect1_dropShadow_33_145"/>
<feBlend mode="normal" in="SourceGraphic" in2="effect1_dropShadow_33_145" result="shape"/>
</filter>
<linearGradient id="paint0_linear_33_145" x1="365.5" y1="15.9062" x2="365.5" y2="293.508" gradientUnits="userSpaceOnUse">
<stop stop-color="#09D0A8" stop-opacity="0.8"/>
<stop offset="0.192708" stop-color="#056F59" stop-opacity="0.645833"/>
<stop offset="1" stop-opacity="0"/>
</linearGradient>
<linearGradient id="paint1_linear_33_145" x1="1094.5" y1="15.9062" x2="1094.5" y2="293.508" gradientUnits="userSpaceOnUse">
<stop stop-color="#09D0A8" stop-opacity="0.8"/>
<stop offset="0.192708" stop-color="#056F59" stop-opacity="0.645833"/>
<stop offset="1" stop-opacity="0"/>
</linearGradient>
<clipPath id="clip0_33_145">
<rect width="60.3673" height="10.64" fill="white" transform="translate(213.402 23.9062)"/>
</clipPath>
</defs>
</svg>
